<svg xmlns="http://www.w3.org/2000/svg" viewBox="0 0 116 84" role="img" aria-label="Branche de houx">
  <!-- Feuille de gauche -->
  <path d="M10 46c8-16 26-24 40-22-4 6-4 10 0 14-8 0-12 4-12 10 6-2 10 0 12 6-10 6-28 4-40-8Z" fill="#2f7c4a"/>
  <!-- Feuille de droite, miroir -->
  <path d="M106 38c-8 16-26 24-40 22 4-6 4-10 0-14 8 0 12-4 12-10-6 2-10 0-12-6 10-6 28-4 40 8Z" fill="#357f4f"/>
  <g fill="#c62035">
    <circle cx="56" cy="46" r="9"/>
    <circle cx="70" cy="54" r="8"/>
    <circle cx="52" cy="62" r="7"/>
  </g>
  <circle cx="53" cy="43" r="2.6" fill="#e0697a" opacity=".8"/>
</svg>
